<svg id="图层_1" data-name="图层 1" xmlns="http://www.w3.org/2000/svg" viewBox="0 0 121.85 32.75"><defs><style>.cls-1{fill:#fff;}</style></defs><title>icon-car修改</title><path class="cls-1" d="M114.45,58.36C108,57.25,94.75,56,89.55,54.42,84.88,53,76.49,43.94,54.18,43.94c-19.6,0-26.75,7.53-34.08,9.17,0,0-10.15,2-11.79,2.63S3,57.66,3.08,59.66V70.15s.55,3.5,3.93,3.93l7.86,1.31C14.35,66.34,20.73,61,28,61a13.1,13.1,0,0,1,13.1,13.1,12.78,12.78,0,0,1-.2,2.21l.2.4H93.75a15.07,15.07,0,0,1-.26-2.62c-.24-7.62,5.86-13.1,13.1-13.1a13.11,13.11,0,0,1,12.84,15.72h.26s5.24-.56,5.24-7.86C124.94,62.53,119.81,59.28,114.45,58.36ZM31.9,54.42s-1.31.25-1.31-1.31c0-1.28,6.31-4.71,15.94-6A15.37,15.37,0,0,1,49,54.92Zm44.55,1.31L51.14,55a40.89,40.89,0,0,0-2.5-8.15c1.76-.17,3.6-.28,5.54-.28,9.86,0,21.49,4.54,23.59,6.55C77.76,53.11,79.76,55.74,76.45,55.74Z" transform="translate(-3.07 -43.94)"/></svg>